<?xml version="1.0" encoding="UTF-8" standalone="no"?>
<!DOCTYPE svg PUBLIC "-//W3C//DTD SVG 1.1//EN"
 "http://www.w3.org/Graphics/SVG/1.1/DTD/svg11.dtd">
<!-- Generated by graphviz version 12.1.1 (20240910.0053)
 -->
<!-- Title: INFRA Pages: 1 -->
<svg width="202pt" height="80pt"
 viewBox="0.00 0.00 201.59 80.00" xmlns="http://www.w3.org/2000/svg" xmlns:xlink="http://www.w3.org/1999/xlink">
<g id="graph0" class="graph" transform="scale(1 1) rotate(0) translate(4 76)">
<title>INFRA</title>
<polygon fill="white" stroke="none" points="-4,4 -4,-76 197.59,-76 197.59,4 -4,4"/>
<!-- Cloudinary -->
<g id="node1" class="node">
<title>Cloudinary</title>
<path fill="#fff5cd" stroke="black" stroke-width="2" d="M82.92,-65.45C82.92,-69.07 64.34,-72 41.46,-72 18.58,-72 0,-69.07 0,-65.45 0,-65.45 0,-6.55 0,-6.55 0,-2.93 18.58,0 41.46,0 64.34,0 82.92,-2.93 82.92,-6.55 82.92,-6.55 82.92,-65.45 82.92,-65.45"/>
<path fill="none" stroke="black" stroke-width="2" d="M82.92,-65.45C82.92,-61.84 64.34,-58.91 41.46,-58.91 18.58,-58.91 0,-61.84 0,-65.45"/>
<text text-anchor="middle" x="41.46" y="-40.2" font-family="Arial" font-size="14.00">Cloudinary</text>
<text text-anchor="middle" x="41.46" y="-23.4" font-family="Arial" font-size="14.00">(CDN)</text>
</g>
<!-- PostgreSQL -->
<g id="node2" class="node">
<title>PostgreSQL</title>
<path fill="#ffcfb3" stroke="black" stroke-width="2" d="M193.59,-65.45C193.59,-69.07 172.92,-72 147.46,-72 122.01,-72 101.33,-69.07 101.33,-65.45 101.33,-65.45 101.33,-6.55 101.33,-6.55 101.33,-2.93 122.01,0 147.46,0 172.92,0 193.59,-2.93 193.59,-6.55 193.59,-6.55 193.59,-65.45 193.59,-65.45"/>
<path fill="none" stroke="black" stroke-width="2" d="M193.59,-65.45C193.59,-61.84 172.92,-58.91 147.46,-58.91 122.01,-58.91 101.33,-61.84 101.33,-65.45"/>
<text text-anchor="middle" x="147.46" y="-40.2" font-family="Arial" font-size="14.00">PostgreSQL</text>
<text text-anchor="middle" x="147.46" y="-23.4" font-family="Arial" font-size="14.00">(Database)</text>
</g>
</g>
</svg>
